<svg width="62" height="62" viewBox="0 0 62 62" fill="none" xmlns="http://www.w3.org/2000/svg">
<circle cx="31" cy="31" r="31" fill="#3A3A3A"/>
<path d="M31 26.1562C28.3238 26.1562 26.1562 28.3238 26.1562 31C26.1562 33.6762 28.3238 35.8438 31 35.8438C33.6762 35.8438 35.8438 33.6762 35.8438 31C35.8438 28.3238 33.6762 26.1562 31 26.1562ZM41.8258 29.7891C41.2688 24.7395 37.2605 20.7313 32.2109 20.1742V18.8906C32.2109 18.2246 31.666 17.6797 31 17.6797C30.334 17.6797 29.7891 18.2246 29.7891 18.8906V20.1742C24.7395 20.7313 20.7313 24.7395 20.1742 29.7891H18.8906C18.2246 29.7891 17.6797 30.334 17.6797 31C17.6797 31.666 18.2246 32.2109 18.8906 32.2109H20.1742C20.7313 37.2605 24.7395 41.2688 29.7891 41.8258V43.1094C29.7891 43.7754 30.334 44.3203 31 44.3203C31.666 44.3203 32.2109 43.7754 32.2109 43.1094V41.8258C37.2605 41.2688 41.2688 37.2605 41.8258 32.2109H43.1094C43.7754 32.2109 44.3203 31.666 44.3203 31C44.3203 30.334 43.7754 29.7891 43.1094 29.7891H41.8258ZM31 39.4766C26.3137 39.4766 22.5234 35.6863 22.5234 31C22.5234 26.3137 26.3137 22.5234 31 22.5234C35.6863 22.5234 39.4766 26.3137 39.4766 31C39.4766 35.6863 35.6863 39.4766 31 39.4766Z" fill="white"/>
</svg>
